<?xml version="1.0" encoding="UTF-8"?>
<svg id="Capa_1" data-name="Capa 1" xmlns="http://www.w3.org/2000/svg" viewBox="0 0 712.84 301.89">
  <path d="M450.55,68.17c25.6,0,45.26,12.97,52.97,34.31.6,1.67,2.44,2.55,4.13,2.01l71.34-23.04c1.87-.6,2.8-2.68,2.04-4.49-9.8-23.21-20.96-38.21-38.78-50.99C519.13,8.93,487.48,0,450.96,0c-53.97,0-96.17,18.26-127.41,54.78-16.48,19.48-28.49,42.97-35.3,68.46-1.68,6.29-7.38,10.66-13.89,10.66h-109.79c-1.56,0-2.91,1.08-3.25,2.6l-8.81,39.16c-2.67,11.88,6.36,23.17,18.53,23.17h22.53c2.34,0,3.95,2.34,3.11,4.53l-.29.75c-9.33,23.94-25.97,35.71-49.5,35.71-33.68,0-56-28.4-56-71.82,0-57.21,33.27-99.82,77.91-99.82,25.59,0,45.26,12.97,52.97,34.31.6,1.67,2.44,2.55,4.13,2.01l71.34-23.04c1.87-.6,2.8-2.68,2.04-4.49-9.8-23.21-20.96-38.21-38.78-50.99C237.37,8.93,205.72,0,169.2,0c-53.97,0-96.17,18.26-127.41,54.78C15.01,86.43,0,128.63,0,172.86c0,77.1,45.45,129.04,112.8,129.04,19.48,0,40.17-5.28,51.53-12.99,3.68-2.53,7.62-5.45,11.31-8.47,2.46-2.01,6.07.25,5.34,3.34l-1.48,6.31c-.49,2.09,1.09,4.09,3.24,4.09h79.15c1.56,0,2.91-1.08,3.25-2.6l8.74-38.8c2.87-12.72,19.91-15.43,26.44-4.14,19.32,33.39,52.58,53.25,94.23,53.25,19.48,0,40.17-5.28,51.53-12.99,3.68-2.53,7.62-5.45,11.31-8.47,2.46-2.01,6.07.25,5.34,3.34l-1.48,6.31c-.49,2.09,1.09,4.09,3.24,4.09h79.15c1.56,0,2.91-1.08,3.25-2.6l34.61-153.62c.47-2.08-1.11-4.06-3.25-4.06h-131.94c-1.56,0-2.91,1.08-3.25,2.6l-8.81,39.16c-2.67,11.88,6.36,23.17,18.53,23.17h22.53c2.34,0,3.95,2.34,3.11,4.53l-.29.75c-9.33,23.94-25.97,35.71-49.5,35.71-33.68,0-56-28.4-56-71.82,0-57.21,33.27-99.82,77.91-99.82Z"/>
  <path d="M674.34,60.64l-1.83,1.74c-5.54,5.26-8.16,6.55-13.35,6.55-7.92,0-13.04-5.41-13.04-13.77,0-8.99,5.17-14.8,13.18-14.8,5.31,0,8.32,1.57,12.92,6.7l1.83,2.05,15.35-17.59-1.55-1.6c-8.81-9.12-16.94-12.67-28.99-12.67-21.89,0-37.18,15.41-37.18,37.48s15.29,37.33,37.18,37.33c11.59,0,19.71-3.54,28.95-12.63l1.64-1.61-15.11-17.16Z"/>
  <path d="M657.98,0c-30.25,0-54.85,24.61-54.85,54.85s24.54,54.85,54.71,54.85,55-24.02,55-55.88c0-29.68-24.61-53.82-54.85-53.82ZM657.84,97.79c-23.33,0-41.61-18.79-41.61-42.78s18.67-43.08,41.61-43.08,41.9,18.9,41.9,43.96c0,22.71-19.19,41.9-41.9,41.9Z"/>
</svg>